[h264 @ 0x560d99786180] Reinit context to 1920x1088, pix_fmt: yuv420p
Input #0, mov,mp4,m4a,3gp,3g2,mj2, from '/var/www/html/project/media/video/original/1000129473.mp4':
  Metadata:
    major_brand     : isom
    minor_version   : 512
    compatible_brands: isomiso2avc1mp41
    Hw              : 1
    LvMetaInfo      : {"data":{"ad_type":"","adsTemplateId":"","appVersion":"12.1.1","businessComponentId":"","businessTemplateId":"","capabilityName":"","ccTtVid":"","commercial_params":{"commercial_audio_music_cnt":0,"commercial_sticker_cnt":0,"commercial_text_font_cnt":0,"c
    aigc_info       : {"aigc_label_type":0,"source_info":""}
    bitrate         : 12000000
    maxrate         : 30000000
    te_is_reencode  : 1
    encoder         : bytevehwavc
  Duration: 00:02:24.68, start: 0.000000, bitrate: 9864 kb/s
    Stream #0:0(und): Video: h264 (High), 1 reference frame (avc1 / 0x31637661), yuv420p(tv, bt709, left), 1920x1080 (1920x1088), 9605 kb/s, 30 fps, 30 tbr, 1000k tbn, 2000k tbc (default)
    Metadata:
      handler_name    : VideoHandler
    Stream #0:1(und): Audio: aac (LC) (mp4a / 0x6134706D), 44100 Hz, stereo, fltp, 255 kb/s (default)
    Metadata:
      handler_name    : SoundHandler
Input #1, png_pipe, from '/var/www/html/project/static/images/templates/logo.png':
  Duration: N/A, bitrate: N/A
    Stream #1:0: Video: png, 1 reference frame, rgba(pc), 1920x1080 [SAR 2835:2835 DAR 16:9], 25 tbr, 25 tbn, 25 tbc
[h264 @ 0x560d997b2900] Reinit context to 1280x720, pix_fmt: yuv420p
Input #2, mov,mp4,m4a,3gp,3g2,mj2, from '/var/www/html/project/static/images/templates/Codino.mp4':
  Metadata:
    major_brand     : mp42
    minor_version   : 1
    compatible_brands: isommp41mp42
    creation_time   : 2021-07-11T07:02:58.000000Z
  Duration: 00:00:02.00, start: 0.000000, bitrate: 1007 kb/s
    Stream #2:0(ita): Audio: aac (LC) (mp4a / 0x6134706D), 44100 Hz, stereo, fltp, 102 kb/s (default)
    Metadata:
      creation_time   : 2021-07-11T07:02:58.000000Z
      handler_name    : Core Media Audio
    Stream #2:1(und): Video: h264 (High), 1 reference frame (avc1 / 0x31637661), yuv420p(tv, bt709, progressive, left), 1280x720 [SAR 1:1 DAR 16:9], 813 kb/s, 25 fps, 25 tbr, 25k tbn, 50k tbc (default)
    Metadata:
      creation_time   : 2021-07-11T07:02:58.000000Z
      handler_name    : Core Media Video
[Parsed_scale_0 @ 0x560d99886f40] w:1920 h:1080 flags:'bilinear' interl:0
[Parsed_scale_2 @ 0x560d9988b6c0] w:1920 h:1080 flags:'bilinear' interl:0
[Parsed_scale_4 @ 0x560d998718c0] w:1920 h:1080 flags:'bilinear' interl:0
Stream mapping:
  Stream #0:0 (h264) -> scale
  Stream #0:1 (aac) -> concat:in0:a0
  Stream #1:0 (png) -> scale
  Stream #2:0 (aac) -> concat:in1:a0
  Stream #2:1 (h264) -> scale
  concat:out:v0 -> Stream #0:0 (libx264)
  concat:out:a0 -> Stream #0:1 (aac)
Press [q] to stop, [?] for help
[h264 @ 0x560d997ce700] Reinit context to 1920x1088, pix_fmt: yuv420p
[h264 @ 0x560d99c275c0] Reinit context to 1280x720, pix_fmt: yuv420p
[Parsed_scale_0 @ 0x560d9b162600] w:1920 h:1080 flags:'bilinear' interl:0
[Parsed_scale_2 @ 0x560d9b16a880] w:1920 h:1080 flags:'bilinear' interl:0
[Parsed_scale_4 @ 0x560d9b16bcc0] w:1920 h:1080 flags:'bilinear' interl:0
[graph 0 input from stream 0:0 @ 0x560d9b170400] w:1920 h:1080 pixfmt:yuv420p tb:1/1000000 fr:30/1 sar:0/1 sws_param:flags=2
[graph 0 input from stream 1:0 @ 0x560d9b171480] w:1920 h:1080 pixfmt:rgba tb:1/25 fr:25/1 sar:2835/2835 sws_param:flags=2
[graph 0 input from stream 2:1 @ 0x560d9b172500] w:1280 h:720 pixfmt:yuv420p tb:1/25000 fr:25/1 sar:1/1 sws_param:flags=2
[graph_0_in_0_1 @ 0x560d9b173480] tb:1/44100 samplefmt:fltp samplerate:44100 chlayout:0x3
[graph_0_in_2_0 @ 0x560d9b1745c0] tb:1/44100 samplefmt:fltp samplerate:44100 chlayout:0x3
[Parsed_scale_0 @ 0x560d9b162600] w:1920 h:1080 fmt:yuv420p sar:0/1 -> w:1920 h:1080 fmt:yuv420p sar:0/1 flags:0x2
[Parsed_setsar_1 @ 0x560d99830f40] w:1920 h:1080 sar:0/1 dar:16/9 -> sar:1/1 dar:16/9
[Parsed_scale_2 @ 0x560d9b16a880] w:1920 h:1080 fmt:rgba sar:2835/2835 -> w:1920 h:1080 fmt:yuva420p sar:1/1 flags:0x2
[Parsed_setsar_3 @ 0x560d9b16af00] w:1920 h:1080 sar:1/1 dar:16/9 -> sar:1/1 dar:16/9
[Parsed_overlay_6 @ 0x560d9b16d340] main w:1920 h:1080 fmt:yuv420p overlay w:1920 h:1080 fmt:yuva420p
[Parsed_overlay_6 @ 0x560d9b16d340] [framesync @ 0x560d9b16d468] Selected 1/1000000 time base
[Parsed_overlay_6 @ 0x560d9b16d340] [framesync @ 0x560d9b16d468] Sync level 2
[Parsed_scale_4 @ 0x560d9b16bcc0] w:1280 h:720 fmt:yuv420p sar:1/1 -> w:1920 h:1080 fmt:yuv420p sar:1/1 flags:0x2
[Parsed_setsar_5 @ 0x560d9b16c780] w:1920 h:1080 sar:1/1 dar:16/9 -> sar:1/1 dar:16/9
[libx264 @ 0x560d997aa400] using SAR=1/1
[libx264 @ 0x560d997aa400] using cpu capabilities: MMX2 SSE2Fast SSSE3 SSE4.2 AVX FMA3 BMI2 AVX2
[libx264 @ 0x560d997aa400] profile High, level 4.0
[libx264 @ 0x560d997aa400] 264 - core 155 r2917 0a84d98 - H.264/MPEG-4 AVC codec - Copyleft 2003-2018 - http://www.videolan.org/x264.html - options: cabac=1 ref=1 deblock=1:0:0 analyse=0x3:0x113 me=hex subme=2 psy=1 psy_rd=1.00:0.00 mixed_ref=0 me_range=16 chroma_me=1 trellis=0 8x8dct=1 cqm=0 deadzone=21,11 fast_pskip=1 chroma_qp_offset=0 threads=24 lookahead_threads=8 sliced_threads=0 nr=0 decimate=1 interlaced=0 bluray_compat=0 constrained_intra=0 bframes=3 b_pyramid=2 b_adapt=1 b_bias=0 direct=1 weightb=1 open_gop=0 weightp=1 keyint=250 keyint_min=25 scenecut=40 intra_refresh=0 rc_lookahead=10 rc=crf mbtree=1 crf=18.0 qcomp=0.60 qpmin=0 qpmax=69 qpstep=4 ip_ratio=1.40 aq=1:1.00
Output #0, mp4, to '/var/www/html/project/media/video/watermarks/1000129473.mp4':
  Metadata:
    major_brand     : isom
    minor_version   : 512
    compatible_brands: isomiso2avc1mp41
    Hw              : 1
    LvMetaInfo      : {"data":{"ad_type":"","adsTemplateId":"","appVersion":"12.1.1","businessComponentId":"","businessTemplateId":"","capabilityName":"","ccTtVid":"","commercial_params":{"commercial_audio_music_cnt":0,"commercial_sticker_cnt":0,"commercial_text_font_cnt":0,"c
    aigc_info       : {"aigc_label_type":0,"source_info":""}
    bitrate         : 12000000
    maxrate         : 30000000
    te_is_reencode  : 1
    encoder         : Lavf58.29.100
    Stream #0:0: Video: h264 (libx264), 1 reference frame (avc1 / 0x31637661), yuv420p(progressive), 1920x1080 [SAR 1:1 DAR 16:9], q=-1--1, 30 fps, 15360 tbn, 30 tbc (default)
    Metadata:
      encoder         : Lavc58.54.100 libx264
    Side data:
      cpb: bitrate max/min/avg: 0/0/0 buffer size: 0 vbv_delay: -1
    Stream #0:1: Audio: aac (LC) (mp4a / 0x6134706D), 44100 Hz, stereo, fltp, delay 1024, 128 kb/s (default)
    Metadata:
      encoder         : Lavc58.54.100 aac
[Parsed_overlay_6 @ 0x560d9b16d340] [framesync @ 0x560d9b16d468] Sync level 0
[Parsed_concat_7 @ 0x560d9b16e480] EOF on in0:v0, 1 streams left in segment.
[Parsed_concat_7 @ 0x560d9b16e480] EOF on in0:a0, 0 streams left in segment.
[Parsed_concat_7 @ 0x560d9b16e480] Segment finished at pts=144666666
[Parsed_concat_7 @ 0x560d9b16e480] EOF on in1:a0, 1 streams left in segment.
[Parsed_concat_7 @ 0x560d9b16e480] EOF on in1:v0, 0 streams left in segment.
[Parsed_concat_7 @ 0x560d9b16e480] Segment finished at pts=146685351
No more output streams to write to, finishing.
frame= 4390 fps= 41 q=-1.0 Lsize=  201806kB time=00:02:26.70 bitrate=11268.9kbits/s speed=1.36x    
[AVIOContext @ 0x560d99784440] Statistics: 0 seeks, 208 writeouts
video:199477kB audio:2176kB subtitle:0kB other streams:0kB global headers:0kB muxing overhead: 0.076076%
Input file #0 (/var/www/html/project/media/video/original/1000129473.mp4):
  Input stream #0:0 (video): 4340 packets read (173690832 bytes); 4340 frames decoded; 
  Input stream #0:1 (audio): 6231 packets read (4627221 bytes); 6229 frames decoded (6378496 samples); 
  Total: 10571 packets (178318053 bytes) demuxed
Input file #1 (/var/www/html/project/static/images/templates/logo.png):
  Input stream #1:0 (video): 1 packets read (111578 bytes); 1 frames decoded; 
  Total: 1 packets (111578 bytes) demuxed
Input file #2 (/var/www/html/project/static/images/templates/Codino.mp4):
  Input stream #2:0 (audio): 89 packets read (26579 bytes); 87 frames decoded (89024 samples); 
  Input stream #2:1 (video): 50 packets read (203365 bytes); 50 frames decoded; 
  Total: 139 packets (229944 bytes) demuxed
Output file #0 (/var/www/html/project/media/video/watermarks/1000129473.mp4):
  Output stream #0:0 (video): 4390 frames encoded; 4390 packets muxed (204264147 bytes); 
  Output stream #0:1 (audio): 6318 frames encoded (6468812 samples); 6319 packets muxed (2227779 bytes); 
  Total: 10709 packets (206491926 bytes) muxed
[AVIOContext @ 0x560d99870a80] Statistics: 2 seeks, 791 writeouts
[libx264 @ 0x560d997aa400] frame I:35    Avg QP:14.82  size:221286
[libx264 @ 0x560d997aa400] frame P:1541  Avg QP:18.46  size: 78795
[libx264 @ 0x560d997aa400] frame B:2814  Avg QP:20.52  size: 26686
[libx264 @ 0x560d997aa400] consecutive B-frames: 12.3%  4.8%  6.0% 76.9%
[libx264 @ 0x560d997aa400] mb I  I16..4: 14.8% 36.7% 48.6%
[libx264 @ 0x560d997aa400] mb P  I16..4: 10.3% 19.5%  3.0%  P16..4: 31.0% 15.0% 11.8%  0.0%  0.0%    skip: 9.5%
[libx264 @ 0x560d997aa400] mb B  I16..4:  2.4%  4.0%  0.3%  B16..8: 28.0% 11.8%  2.3%  direct:12.9%  skip:38.3%  L0:40.9% L1:37.6% BI:21.4%
[libx264 @ 0x560d997aa400] 8x8 transform intra:58.4% inter:50.7%
[libx264 @ 0x560d997aa400] coded y,uvDC,uvAC intra: 49.4% 62.1% 11.1% inter: 21.3% 20.5% 0.7%
[libx264 @ 0x560d997aa400] i16 v,h,dc,p: 43% 32% 20%  5%
[libx264 @ 0x560d997aa400] i8 v,h,dc,ddl,ddr,vr,hd,vl,hu: 25% 27% 31%  2%  3%  3%  3%  3%  3%
[libx264 @ 0x560d997aa400] i4 v,h,dc,ddl,ddr,vr,hd,vl,hu: 24% 26% 13%  5%  7%  6%  7%  5%  7%
[libx264 @ 0x560d997aa400] i8c dc,h,v,p: 49% 28% 20%  3%
[libx264 @ 0x560d997aa400] Weighted P-Frames: Y:9.3% UV:1.0%
[libx264 @ 0x560d997aa400] kb/s:11141.64
[aac @ 0x560d997b4540] Qavg: 4079.130
[AVIOContext @ 0x560d9978d3c0] Statistics: 317596081 bytes read, 8065 seeks
[AVIOContext @ 0x560d997b3400] Statistics: 111578 bytes read, 0 seeks
[AVIOContext @ 0x560d997b08c0] Statistics: 1530915 bytes read, 42 seeks
